<?xml version="1.0" standalone="no"?>
<!DOCTYPE svg PUBLIC "-//W3C//DTD SVG 20010904//EN"
 "http://www.w3.org/TR/2001/REC-SVG-20010904/DTD/svg10.dtd">
<svg version="1.0" xmlns="http://www.w3.org/2000/svg"
 width="300.000000pt" height="300.000000pt" viewBox="0 0 300.000000 300.000000"
 preserveAspectRatio="xMidYMid meet">
<metadata>
Created by potrace 1.10, written by Peter Selinger 2001-2011
</metadata>
<g transform="translate(0.000000,300.000000) scale(0.100000,-0.100000)"
fill="#000000" stroke="none">
<path d="M1194 2291 c-260 -74 -444 -297 -444 -538 0 -120 41 -236 140 -393
49 -78 70 -144 70 -222 0 -64 -29 -139 -62 -162 -18 -13 -19 -16 -4 -44 19
-37 98 -107 151 -134 44 -23 140 -34 208 -24 39 6 47 11 56 36 16 46 61 99
100 120 29 14 68 19 191 23 232 7 277 28 267 121 -4 28 -2 68 2 89 9 36 8 37
-18 37 -44 1 -109 36 -131 72 -30 50 -26 58 25 58 52 0 109 21 142 52 20 18
22 28 16 78 -5 54 -4 58 18 63 51 13 113 96 94 126 -3 6 -30 22 -60 36 -29 14
-69 43 -89 65 l-36 40 7 108 c6 103 4 112 -20 165 -46 102 -151 180 -301 226
-87 27 -233 28 -322 2z m336 -45 c111 -38 186 -89 235 -162 29 -42 36 -95 10
-74 -10 8 -43 12 -95 11 -48 -1 -80 2 -80 8 0 6 -7 8 -16 4 -8 -3 -28 4 -44
16 -36 26 -44 26 -86 0 -19 -11 -34 -16 -34 -10 0 6 -9 15 -20 21 -15 8 -28 6
-55 -9 -20 -10 -45 -16 -57 -13 -15 4 -19 2 -13 -8 13 -22 -214 -10 -249 13
-20 13 -42 18 -72 15 -24 -2 -44 1 -44 6 0 23 110 110 187 148 144 72 288 83
433 34z m-10 -216 c0 -15 -7 -20 -25 -20 -29 0 -33 15 -7 29 25 15 32 13 32
-9z m-125 -32 c-7 -42 -7 -43 12 -25 11 9 28 17 38 17 17 0 16 -2 -5 -25 -23
-24 -23 -25 -5 -45 27 -30 35 -25 35 24 0 36 4 45 20 49 19 5 21 2 18 -46 l-3
-52 -40 -7 c-33 -5 -42 -3 -54 13 -13 19 -38 28 -26 10 3 -6 -4 -15 -15 -21
-22 -12 -22 -12 -20 50 3 89 7 99 38 100 11 0 12 -10 7 -42z m-388 20 c5 -7
10 -32 11 -54 1 -60 -25 -81 -96 -76 -20 2 -22 5 -16 43 5 28 3 43 -6 49 -9 6
-7 13 9 29 24 24 83 29 98 9z m113 -30 c0 -5 -8 -12 -17 -15 -24 -9 -33 -23
-33 -54 0 -19 -6 -28 -21 -32 -20 -5 -21 -3 -15 46 4 28 12 54 17 58 15 9 69
7 69 -3z m84 -4 c9 -8 16 -19 16 -23 0 -15 -25 -31 -48 -31 -14 0 -21 -4 -16
-11 3 -6 17 -9 30 -6 31 6 32 -18 2 -26 -57 -15 -94 64 -46 97 28 20 43 20 62
0z m128 -39 c-4 -51 -5 -53 -35 -58 -46 -7 -67 8 -67 45 0 43 23 65 68 65 l37
0 -3 -52z m301 1 c-1 -43 -13 -65 -34 -66 -4 0 -4 21 -1 46 4 37 2 46 -9 42
-8 -2 -15 -18 -17 -34 -3 -26 -25 -54 -42 -54 -10 0 1 104 12 111 5 3 28 5 51
5 l42 -1 -2 -49z m131 22 c-2 -15 -6 -42 -9 -60 -7 -45 -32 -68 -72 -68 -41 0
-41 23 0 28 33 4 36 22 3 22 -36 0 -48 48 -22 86 11 16 26 21 60 21 44 0 45
-1 40 -29z m-894 -23 c0 -36 6 -52 26 -72 22 -22 30 -24 67 -18 23 4 53 7 67
6 14 -1 35 4 47 10 19 10 29 9 57 -6 29 -16 39 -17 60 -7 16 7 35 8 48 3 24
-8 303 -5 327 4 8 3 38 -10 67 -30 52 -36 53 -36 86 -21 19 9 43 31 53 49 l20
32 5 -60 c7 -83 49 -137 143 -184 39 -20 34 -40 -23 -92 -45 -41 -50 -50 -50
-88 0 -23 -4 -51 -10 -61 -13 -24 -63 -41 -147 -49 -7 0 -20 -12 -29 -26 -14
-21 -14 -30 -4 -55 13 -31 85 -100 104 -100 5 0 18 -7 28 -17 23 -21 25 -114
3 -137 -27 -27 -96 -39 -240 -41 -179 -3 -182 -4 -302 -149 -19 -23 -28 -26
-91 -26 -80 0 -128 17 -190 67 -64 52 -66 62 -31 131 27 51 31 70 31 133 -1
92 -25 166 -91 274 -73 119 -89 155 -106 236 -18 90 -18 127 -1 199 33 130 76
185 76 95z"/>
<path d="M950 1971 c0 -16 -3 -36 -6 -45 -7 -18 4 -20 25 -7 13 8 13 12 0 27
-11 13 -11 18 -1 21 17 6 15 33 -3 33 -10 0 -15 -10 -15 -29z"/>
<path d="M1266 1955 c-6 -17 2 -45 14 -45 9 0 20 25 20 46 0 19 -26 18 -34 -1z"/>
<path d="M1697 1963 c-4 -3 -7 -17 -7 -30 0 -33 24 -24 28 10 3 26 -7 35 -21
20z"/>
<path d="M1260 1790 c-8 -5 -23 -7 -32 -4 -25 7 -55 -12 -73 -46 -13 -25 -14
-37 -4 -73 20 -69 25 -71 151 -72 62 0 122 -4 133 -8 16 -7 17 -7 5 2 -12 9
-10 11 11 11 33 0 55 25 63 73 6 34 4 41 -25 67 -31 30 -49 36 -63 23 -13 -13
-51 -14 -61 -1 -27 33 -76 47 -105 28z m54 -38 c-6 -27 -4 -29 26 -24 l31 4
-3 -53 c-2 -42 -7 -55 -20 -57 -16 -3 -17 2 -12 42 5 30 3 46 -4 46 -14 0 -24
-16 -31 -54 -4 -17 -14 -32 -23 -34 -15 -3 -16 5 -11 70 6 70 14 88 40 88 8 0
11 -10 7 -28z m-84 -13 c0 -11 5 -17 10 -14 6 3 10 -1 10 -9 0 -9 -7 -16 -15
-16 -9 0 -15 -9 -15 -25 0 -16 6 -25 16 -25 26 0 10 -25 -19 -28 -21 -3 -28 2
-33 22 -3 14 -3 30 1 37 4 6 2 14 -4 18 -8 5 -8 14 2 34 14 32 47 37 47 6z
m248 -21 c20 -20 13 -38 -20 -54 -32 -15 -32 -15 -5 -11 22 3 27 1 25 -12 -4
-20 -54 -27 -74 -10 -17 14 -19 70 -2 87 7 7 24 12 38 12 14 0 31 -5 38 -12z"/>
<path d="M1116 1533 c-3 -4 -27 -7 -51 -8 -69 -1 -91 -28 -87 -108 2 -34 9
-68 17 -77 12 -13 60 -15 340 -14 179 1 330 5 334 10 5 5 12 32 16 59 6 45 4
53 -19 74 -21 20 -37 25 -93 26 -38 1 -76 -2 -86 -7 -10 -5 -32 -4 -56 3 -28
8 -48 9 -68 1 -30 -10 -95 1 -138 24 -26 14 -100 26 -109 17z m44 -37 c0 -15
-37 -32 -47 -22 -3 3 -3 12 0 21 8 19 47 20 47 1z m-72 -26 c3 -20 1 -23 -9
-12 -17 16 -29 15 -29 -1 0 -7 9 -18 20 -25 26 -16 26 -58 -1 -72 -28 -15 -63
-9 -67 13 -3 15 1 17 22 11 33 -8 33 2 1 32 -31 29 -32 48 -2 69 31 22 61 15
65 -15z m124 -22 c-6 -66 -18 -98 -35 -98 -10 0 -12 15 -9 63 4 79 7 87 30 87
17 0 19 -6 14 -52z m194 10 c34 6 42 -8 35 -60 -4 -30 -11 -44 -23 -46 -16 -3
-17 2 -12 42 5 31 3 46 -4 46 -14 0 -32 -33 -32 -58 0 -17 -27 -39 -36 -29 -2
2 -1 26 3 55 4 36 11 52 22 54 9 2 17 1 19 -3 1 -3 14 -4 28 -1z m144 -14 c0
-8 -10 -14 -25 -14 -20 0 -25 -5 -25 -25 0 -20 5 -25 26 -25 33 0 27 -24 -8
-28 -50 -6 -78 57 -40 90 33 29 72 30 72 2z m-400 -27 c0 -43 -13 -67 -36 -67
-8 0 -11 13 -7 43 7 58 10 67 28 67 11 0 15 -11 15 -43z m168 15 c3 -17 -4
-26 -30 -37 l-33 -14 33 -1 c22 0 32 -4 30 -12 -7 -20 -58 -21 -79 -2 -23 21
-24 42 -3 72 22 32 77 28 82 -6z m336 12 c11 -27 7 -35 -26 -50 l-33 -14 30 2
c21 2 30 -1 30 -12 0 -22 -58 -25 -79 -5 -20 21 -21 59 0 79 20 21 70 21 78 0z"/>
<path d="M2112 1510 c-122 -59 -123 -59 -120 -91 5 -54 30 -53 164 11 118 56
140 74 128 105 -5 13 -36 36 -46 34 -2 0 -58 -27 -126 -59z m131 5 c3 -15
-190 -108 -208 -101 -27 10 -7 26 89 72 89 43 115 49 119 29z"/>
<path d="M2046 1314 c-19 -18 -20 -28 -6 -55 10 -17 22 -19 148 -19 145 0 162
5 162 45 0 40 -17 45 -156 45 -107 0 -136 -3 -148 -16z m263 -18 c28 -18 -9
-26 -120 -26 -97 0 -119 3 -119 14 0 10 13 16 38 18 63 5 189 1 201 -6z"/>
<path d="M1997 1183 c-4 -3 -7 -19 -7 -35 0 -28 7 -33 113 -83 142 -67 158
-70 177 -36 18 35 -2 53 -117 107 -106 51 -151 63 -166 47z m136 -60 c82 -37
117 -59 117 -75 0 -18 -39 -6 -130 40 -89 44 -122 72 -85 72 8 0 53 -17 98
-37z"/>
<path d="M1712 878 c-20 -42 -19 -53 7 -66 21 -11 33 -11 64 -1 20 7 37 18 37
25 0 7 5 16 11 20 8 4 9 0 4 -15 -5 -15 -2 -21 9 -21 10 0 16 9 16 25 0 16 -6
25 -15 25 -8 0 -14 5 -12 11 1 6 -4 14 -10 16 -7 3 -13 -2 -13 -11 0 -8 -4
-26 -9 -40 -8 -19 -15 -23 -32 -19 -22 6 -22 6 -2 14 11 4 23 17 26 28 7 28
-7 27 -22 -1 -6 -13 -9 -15 -7 -6 4 12 1 15 -10 11 -7 -3 -14 -13 -14 -23 0
-11 -5 -22 -10 -25 -7 -4 -8 8 -4 34 7 46 3 52 -14 19z"/>
<path d="M2116 883 c-3 -10 -10 -28 -16 -40 -7 -18 -6 -23 4 -23 8 0 17 11 20
24 3 13 9 31 12 40 3 9 2 16 -4 16 -5 0 -12 -8 -16 -17z"/>
<path d="M2250 885 c0 -8 -9 -15 -20 -15 -14 0 -20 -7 -20 -24 0 -18 5 -23 24
-23 19 0 25 6 30 30 8 40 8 47 -4 47 -5 0 -10 -7 -10 -15z"/>
<path d="M1443 878 c0 -7 -4 -26 -8 -41 -7 -27 -6 -28 21 -21 37 8 41 13 46
44 3 21 -1 25 -28 28 -20 2 -31 -2 -31 -10z"/>
<path d="M1603 884 c10 -10 -14 -63 -31 -67 -9 -3 1 -5 23 -6 63 -1 81 7 93
45 8 27 7 34 -3 34 -17 0 -30 -19 -30 -44 0 -11 -7 -21 -15 -24 -12 -3 -12 -2
-3 8 15 16 -4 60 -25 60 -9 0 -13 -3 -9 -6z"/>
<path d="M1880 875 c-11 -14 -11 -65 1 -55 3 3 13 -1 22 -8 9 -8 22 -10 29 -6
6 4 30 7 51 5 67 -4 94 7 106 41 14 39 14 38 -3 38 -15 0 -30 -27 -27 -47 1
-6 -4 -15 -10 -19 -8 -5 -10 -2 -7 7 7 17 -8 59 -20 59 -5 0 -13 -15 -18 -32
-6 -18 -17 -34 -27 -36 -14 -3 -16 2 -10 29 4 24 3 30 -6 25 -7 -5 -10 -14 -7
-22 3 -8 2 -14 -3 -14 -5 0 -11 9 -14 21 -8 29 -25 15 -19 -16 2 -14 0 -25 -6
-25 -15 0 -21 22 -11 42 12 22 -5 32 -21 13z"/>
<path d="M1519 873 c-1 -5 0 -18 1 -30 1 -13 -3 -23 -9 -23 -6 0 -11 -4 -11
-10 0 -18 26 -11 48 13 23 25 29 47 12 47 -5 0 -10 -8 -11 -17 0 -14 -2 -13
-9 5 -9 22 -19 29 -21 15z"/>
<path d="M2144 863 c-2 -7 -6 -20 -9 -28 -2 -9 2 -15 10 -15 8 0 15 9 15 20 0
11 4 20 9 20 5 0 7 -9 4 -20 -3 -11 0 -20 6 -20 6 0 12 7 13 15 0 8 1 20 2 27
1 16 -45 18 -50 1z"/>
<path d="M2285 870 c-4 -6 -1 -18 6 -26 10 -12 9 -13 -5 -8 -28 11 -18 -4 14
-19 27 -14 29 -14 27 3 -2 10 -9 25 -16 34 -12 14 -11 16 4 10 13 -5 16 -4 11
4 -9 15 -33 16 -41 2z"/>
</g>
</svg>
